<svg width="16" height="16" viewBox="0 0 16 16" fill="none" xmlns="http://www.w3.org/2000/svg">
<path d="M3.99992 9.33334L4.99992 7.4C5.10863 7.1841 5.274 7.00181 5.47833 6.87264C5.68265 6.74346 5.91825 6.67227 6.15992 6.66667H13.3333M13.3333 6.66667C13.5369 6.66631 13.738 6.71263 13.921 6.80206C14.104 6.89149 14.2641 7.02166 14.389 7.18258C14.5138 7.3435 14.6002 7.53089 14.6414 7.73037C14.6826 7.92985 14.6775 8.13612 14.6266 8.33334L13.5999 12.3333C13.5256 12.621 13.3574 12.8757 13.1219 13.0569C12.8863 13.238 12.5971 13.3353 12.2999 13.3333H2.66659C2.31296 13.3333 1.97382 13.1929 1.72378 12.9428C1.47373 12.6928 1.33325 12.3536 1.33325 12V3.33334C1.33325 2.97971 1.47373 2.64058 1.72378 2.39053C1.97382 2.14048 2.31296 2 2.66659 2H5.26659C5.48958 1.99782 5.70955 2.0516 5.90638 2.15642C6.10322 2.26124 6.27061 2.41375 6.39325 2.6L6.93325 3.4C7.05466 3.58436 7.21994 3.73568 7.41425 3.84041C7.60857 3.94513 7.82585 3.99997 8.04659 4H11.9999C12.3535 4 12.6927 4.14048 12.9427 4.39053C13.1928 4.64058 13.3333 4.97971 13.3333 5.33334V6.66667Z" stroke="#28363D" stroke-width="1.33333" stroke-linecap="round" stroke-linejoin="round"/>
</svg>
